<svg aria-hidden="true" style="width:0;height:0;position:absolute;overflow:hidden" xmlns="http://www.w3.org/2000/svg"><defs><symbol id="icon-closed-modal" viewBox="0 0 32 32"><path d="M18.193 16 31.089 3.104A1.556 1.556 0 0 0 28.895.911L16 13.807 3.104.896A1.56 1.56 0 0 0 .896 3.104L13.807 16 .896 28.896a1.552 1.552 0 0 0-.436 1.748 1.553 1.553 0 0 0 2.628.445l12.911-12.896 12.895 12.896a1.556 1.556 0 0 0 2.194-2.193L18.192 16z"/></symbol><symbol id="icon-video-apple" viewBox="0 0 26 32"><path d="M14.393 2.785C16.496.014 19.419 0 19.419 0s.435 2.605-1.654 5.115C15.535 7.795 13 7.356 13 7.356s-.476-2.108 1.394-4.572zm-1.126 6.397c1.082 0 3.089-1.487 5.702-1.487 4.498 0 6.267 3.201 6.267 3.201s-3.461 1.769-3.461 6.063c0 4.843 4.311 6.512 4.311 6.512s-3.014 8.482-7.084 8.482c-1.87 0-3.323-1.26-5.293-1.26-2.008 0-4 1.307-5.297 1.307-3.717 0-8.413-8.046-8.413-14.514 0-6.364 3.975-9.702 7.703-9.702 2.424 0 4.304 1.398 5.565 1.398z"/></symbol><symbol id="icon-video-android" viewBox="0 0 28 32"><path d="M5.261 24.204c0 .836.708 1.518 1.578 1.518h1.804v4.3c0 1.089.908 1.979 2.023 1.979 1.119 0 2.023-.886 2.023-1.979v-4.303h3.149v4.3c0 1.089.908 1.979 2.023 1.979 1.119 0 2.023-.886 2.023-1.979v-4.3h1.804c.871 0 1.578-.682 1.578-1.518V10.087H5.261v14.117zM18.49 2.773 20.153.452c.096-.136.074-.318-.056-.407-.13-.086-.315-.043-.411.093L17.96 2.552c-1.137-.432-2.404-.671-3.734-.671s-2.597.239-3.734.671L8.766.141C8.67.005 8.484-.041 8.355.048c-.13.086-.152.264-.056.407l1.663 2.321C7.317 3.962 5.465 6.208 5.227 8.833h18.005c-.245-2.628-2.101-4.875-4.742-6.06zm-8.065 3.66c-.197 0-.39-.056-.554-.162s-.292-.256-.367-.431a.936.936 0 0 1 .216-1.047 1.03 1.03 0 0 1 1.086-.208c.182.073.338.196.447.354s.168.344.168.534c-.001.255-.106.499-.293.679s-.44.281-.704.282zm7.72 0c-.197 0-.39-.056-.554-.162s-.292-.256-.367-.431a.936.936 0 0 1 .216-1.047 1.03 1.03 0 0 1 1.086-.208c.182.073.338.196.447.354s.168.344.168.534c-.001.255-.106.499-.293.679s-.44.281-.704.282zm8.277 3.597c-1.119 0-2.023.886-2.023 1.979v7.728c0 1.089.908 1.979 2.023 1.979 1.119 0 2.023-.886 2.023-1.979v-7.732c.004-1.093-.9-1.975-2.023-1.975zm-24.399 0C.904 10.03 0 10.916 0 12.009v7.728c0 1.089.908 1.979 2.023 1.979 1.119 0 2.023-.886 2.023-1.979v-7.732c0-1.093-.908-1.975-2.023-1.975z"/></symbol><symbol id="icon-hero-arrow" viewBox="0 0 18 32"><path d="M.914 26.286 11.2 16 .914 5.714 2.971 1.6l14.4 14.4-14.4 14.4-2.057-4.114z"/></symbol><symbol id="icon-footer-in" viewBox="0 0 32 32"><path d="M8.268 28H2.463V9.306h5.805V28zM5.362 6.756C3.506 6.756 2 5.218 2 3.362A3.366 3.366 0 0 1 5.362 0a3.366 3.366 0 0 1 3.362 3.362c0 1.856-1.506 3.394-3.362 3.394zM29.994 28h-5.792v-9.1c0-2.169-.044-4.95-3.018-4.95-3.018 0-3.481 2.356-3.481 4.794V28h-5.799V9.306h5.567v2.55h.081c.775-1.469 2.668-3.019 5.492-3.019 5.875 0 6.955 3.869 6.955 8.894V28h-.005z"/></symbol><symbol id="icon-footer-twitter" viewBox="0 0 32 32"><path d="M30 7.568a11.204 11.204 0 0 1-1.3 1.606 12.04 12.04 0 0 1-1.572 1.36c.018.251.027.502.028.754 0 1.148-.122 2.282-.368 3.404a16.933 16.933 0 0 1-1.068 3.254 16.886 16.886 0 0 1-2.528 4.08 15.54 15.54 0 0 1-3.44 3.042 15.693 15.693 0 0 1-4.19 1.9 17.052 17.052 0 0 1-4.758.658 16.358 16.358 0 0 1-4.586-.65A15.847 15.847 0 0 1 2 25.04a11.53 11.53 0 0 0 8.504-2.38 5.673 5.673 0 0 1-4.546-2.38 5.768 5.768 0 0 1-.814-1.6c.182.028.362.052.54.07a5.596 5.596 0 0 0 2.044-.178 5.602 5.602 0 0 1-1.852-.724 5.877 5.877 0 0 1-1.456-1.266 5.674 5.674 0 0 1-1.3-3.644v-.066a5.57 5.57 0 0 0 2.612.724 5.89 5.89 0 0 1-1.872-2.08 5.925 5.925 0 0 1-.506-1.298 5.895 5.895 0 0 1 .014-2.906c.126-.486.322-.948.588-1.386.728.902 1.54 1.712 2.432 2.426a16.43 16.43 0 0 0 6.016 3.05c1.108.297 2.244.473 3.39.526-.055-.213-.094-.431-.116-.65s-.034-.441-.034-.662c0-.794.15-1.54.452-2.236a5.79 5.79 0 0 1 3.056-3.056 5.586 5.586 0 0 1 2.234-.45 5.693 5.693 0 0 1 4.198 1.818 11.405 11.405 0 0 0 3.636-1.396 5.629 5.629 0 0 1-2.516 3.172A11.405 11.405 0 0 0 30 7.57v-.002z"/></symbol><symbol id="icon-footer-facebook" viewBox="0 0 32 32"><path d="M24 3.416c0-.196-.077-.385-.213-.524s-.321-.217-.514-.217h-3.636c-1.831-.093-3.624.556-4.987 1.805s-2.185 2.996-2.286 4.86v3.999H8.728c-.193 0-.378.078-.514.217s-.213.327-.213.524v3.851c0 .196.077.385.213.524s.321.217.514.217h3.636v9.923c0 .196.077.385.213.524s.321.217.514.217h4.364c.193 0 .378-.078.514-.217s.213-.327.213-.524v-9.923h3.811c.162.002.32-.05.449-.149s.222-.24.264-.399l1.047-3.851a.743.743 0 0 0-.124-.641.73.73 0 0 0-.574-.292h-4.873V9.341c.036-.367.205-.706.474-.953s.619-.382.98-.38h3.636c.193 0 .378-.078.514-.217s.213-.327.213-.524V3.416z"/></symbol><symbol id="icon-modal-download-app-name" viewBox="0 0 32 32"><path d="M26.706 9.022c.187.188.294.441.294.706V29a1 1 0 0 1-1 1H6a1 1 0 0 1-1-1V3a1 1 0 0 1 1-1h13.272c.266 0 .522.106.709.294l6.725 6.728zm-2.012 1.166-5.881-5.881v5.881h5.881zM10 15.063a.25.25 0 0 0-.25.25v1.5a.25.25 0 0 0 .25.25h12a.25.25 0 0 0 .25-.25v-1.5a.25.25 0 0 0-.25-.25H10zm0 4.249a.25.25 0 0 0-.25.25v1.5a.25.25 0 0 0 .25.25h5.75a.25.25 0 0 0 .25-.25v-1.5a.25.25 0 0 0-.25-.25H10z"/></symbol><symbol id="icon-modal-download-author" viewBox="0 0 32 32"><path d="M26.749 24.93a13.99 13.99 0 1 0-24.748-8.932 13.902 13.902 0 0 0 3.251 8.93l-.02.017c.07.084.15.156.222.239.09.103.187.2.28.3.28.304.568.596.87.87.092.084.187.162.28.242.32.276.649.538.99.782.044.03.084.069.128.1v-.012a13.902 13.902 0 0 0 16 0v.012c.044-.031.083-.07.128-.1.34-.245.67-.506.99-.782.093-.08.188-.159.28-.242.302-.275.59-.566.87-.87.093-.1.189-.197.28-.3.071-.083.152-.155.222-.24l-.022-.016zM16 8a4.503 4.503 0 0 1 4.157 2.778 4.502 4.502 0 0 1-3.28 6.136 4.502 4.502 0 0 1-5.378-4.413 4.5 4.5 0 0 1 4.5-4.5zM8.007 24.93A4.995 4.995 0 0 1 13 20h6a4.998 4.998 0 0 1 4.993 4.93 11.942 11.942 0 0 1-15.986 0z"/></symbol><symbol id="icon-modal-download-data" viewBox="0 0 32 32"><path d="M28 26.667V8a2.67 2.67 0 0 0-2.667-2.667h-2.667V2.666h-2.667v2.667h-8V2.666H9.332v2.667H6.665A2.67 2.67 0 0 0 3.998 8v18.667a2.67 2.67 0 0 0 2.667 2.667h18.667a2.67 2.67 0 0 0 2.667-2.667zM12 24H9.333v-2.667H12V24zm0-5.333H9.333V16H12v2.667zM17.333 24h-2.667v-2.667h2.667V24zm0-5.333h-2.667V16h2.667v2.667zM22.667 24H20v-2.667h2.667V24zm0-5.333H20V16h2.667v2.667zM25.333 12H6.666V9.333h18.667V12z"/></symbol><symbol id="icon-modal-download-download" viewBox="0 0 24 32"><path d="M14.088 8.425V0H1.509C.673 0 0 .663 0 1.487V30.23c0 .824.673 1.487 1.509 1.487h21.132c.836 0 1.509-.663 1.509-1.487V9.912h-8.553c-.83 0-1.509-.669-1.509-1.487zm4.808 13.093-6.064 5.928a1.085 1.085 0 0 1-1.512 0l-6.064-5.928c-.638-.624-.191-1.695.708-1.695h4.099v-4.956c0-.548.45-.991 1.006-.991h2.013a.999.999 0 0 1 1.006.991v4.956h4.099c.898 0 1.346 1.071.709 1.695zm4.815-15.014L17.554.433a1.52 1.52 0 0 0-1.069-.434h-.384v7.929h8.05V7.55c0-.39-.157-.768-.44-1.047z"/></symbol><symbol id="icon-modal-download-downloads-svg" viewBox="0 0 32 32"><path d="M13.5 0h5c.831 0 1.5.669 1.5 1.5V12h5.481c1.112 0 1.669 1.344.881 2.131l-9.506 9.513a1.21 1.21 0 0 1-1.706 0l-9.519-9.513C4.844 13.344 5.4 12 6.512 12H12V1.5c0-.831.669-1.5 1.5-1.5zM32 23.5v7c0 .831-.669 1.5-1.5 1.5h-29C.669 32 0 31.331 0 30.5v-7c0-.831.669-1.5 1.5-1.5h9.169l3.062 3.063a3.204 3.204 0 0 0 4.538 0L21.331 22H30.5c.831 0 1.5.669 1.5 1.5zM24.25 29c0-.688-.563-1.25-1.25-1.25s-1.25.563-1.25 1.25c0 .688.563 1.25 1.25 1.25s1.25-.563 1.25-1.25zm4 0c0-.688-.563-1.25-1.25-1.25s-1.25.563-1.25 1.25c0 .688.563 1.25 1.25 1.25s1.25-.563 1.25-1.25z"/></symbol><symbol id="icon-modal-download-language" viewBox="0 0 32 32"><path d="M16 29.333c-1.822 0-3.544-.35-5.167-1.051s-3.039-1.655-4.249-2.867c-1.212-1.211-2.167-2.627-2.867-4.249s-1.051-3.344-1.051-5.167c0-1.844.35-3.572 1.051-5.183s1.655-3.023 2.867-4.233c1.211-1.212 2.627-2.168 4.249-2.868S14.177 2.666 16 2.666c1.844 0 3.572.35 5.183 1.049a13.536 13.536 0 0 1 7.1 7.101c.7 1.611 1.051 3.338 1.051 5.183 0 1.822-.35 3.544-1.051 5.167s-1.655 3.039-2.867 4.249c-1.211 1.212-2.622 2.167-4.233 2.867S17.845 29.333 16 29.333zm0-2.733c.578-.8 1.078-1.633 1.5-2.5s.767-1.789 1.033-2.767h-5.067c.267.978.611 1.9 1.033 2.767s.922 1.7 1.5 2.5zm-3.466-.533c-.4-.733-.75-1.495-1.049-2.284s-.551-1.605-.751-2.449H6.801c.644 1.111 1.45 2.078 2.416 2.9s2.073 1.433 3.317 1.833zm6.933 0c1.244-.4 2.35-1.011 3.316-1.833s1.773-1.789 2.417-2.9h-3.933c-.2.844-.45 1.661-.749 2.449s-.651 1.551-1.051 2.284zm-13.8-7.4H10.2a17.269 17.269 0 0 1-.2-2.666c0-.467.016-.916.049-1.349s.084-.873.151-1.317H5.667a10.52 10.52 0 0 0-.334 2.666 10.693 10.693 0 0 0 .334 2.666zm7.2 0h6.267c.067-.444.117-.884.151-1.317.033-.433.049-.883.049-1.349s-.016-.916-.049-1.349a18.515 18.515 0 0 0-.151-1.317h-6.267a17.996 17.996 0 0 0-.149 4.015c.034.433.083.873.149 1.317zm8.933 0h4.533a10.52 10.52 0 0 0 .334-2.666 10.693 10.693 0 0 0-.334-2.666H21.8a17.996 17.996 0 0 1 .149 4.015c-.033.434-.083.873-.149 1.317zm-.533-8H25.2c-.644-1.111-1.45-2.078-2.417-2.9s-2.072-1.433-3.316-1.833c.4.733.75 1.494 1.051 2.283s.549 1.606.749 2.451zm-7.8 0h5.067c-.267-.978-.611-1.9-1.033-2.767s-.922-1.7-1.5-2.5c-.578.8-1.078 1.633-1.5 2.5s-.767 1.789-1.033 2.767zm-6.667 0h3.933c.2-.844.45-1.661.751-2.451s.649-1.549 1.049-2.283c-1.244.4-2.35 1.011-3.317 1.833s-1.772 1.789-2.416 2.9z"/></symbol><symbol id="icon-modal-download-license" viewBox="0 0 25 32"><path d="M7.572 18.876V17h2v1.876c0 .164.02.327.06.486l.8 3.196-1.86 1.24-1.86-1.24.8-3.196c.04-.159.06-.322.06-.486z"/><path d="M15.158 0H4.572a4.003 4.003 0 0 0-4 4v24a4.003 4.003 0 0 0 4 4h16a4.003 4.003 0 0 0 4-4V9.414A2 2 0 0 0 23.986 8L16.572.586A2 2 0 0 0 15.158 0zm.413 7V3l6 6h-4a2 2 0 0 1-2-2zm-8-1V4h-2V2h3v2h2v2h-2v2h2v2h-2v2h2v2h-3v-2h-2v-2h2V8h-2V6h2zm0 9h2a2 2 0 0 1 2 2v1.876l.8 3.198a1.998 1.998 0 0 1-.832 2.148l-1.86 1.24a1.997 1.997 0 0 1-2.218 0l-1.86-1.24a2.005 2.005 0 0 1-.83-2.149l.8-3.198v-1.876a2 2 0 0 1 2-2z"/></symbol><symbol id="icon-modal-download-oc" viewBox="0 0 32 32"><path d="M28.005 2.672h-24a2.674 2.674 0 0 0-2.666 2.666v16a2.674 2.674 0 0 0 2.666 2.666h9.333v2.667h-2.667v2.667h10.667v-2.667h-2.667v-2.667h9.333a2.674 2.674 0 0 0 2.666-2.666v-16a2.674 2.674 0 0 0-2.666-2.666zM14.341 18.227h-.001l-6.333-6.333 1.887-1.884 4.448 4.448 7.78-7.781 1.887 1.887-9.667 9.664z"/></symbol><symbol id="icon-modal-download-play" viewBox="0 0 32 32"><path d="M7.381 29.181a1.343 1.343 0 0 0 1.378-.085l17.333-12a1.33 1.33 0 0 0 .422-1.715 1.327 1.327 0 0 0-.422-.477l-17.333-12a1.337 1.337 0 0 0-1.377-.084 1.34 1.34 0 0 0-.715 1.181v24a1.333 1.333 0 0 0 .715 1.181z"/></symbol><symbol id="icon-modal-download-size" viewBox="0 0 32 32"><path d="M26.806 25.481a2.666 2.666 0 0 1-2.663 2.518H7.855a2.67 2.67 0 0 1-2.663-2.518L4.155 6.814c-.02-.362.034-.724.158-1.065s.317-.652.567-.915a2.679 2.679 0 0 1 1.936-.835h18.363a2.678 2.678 0 0 1 1.938.834 2.663 2.663 0 0 1 .726 1.981l-1.037 18.667zm-3.977-13.628c.547-.36.684-1.074.235-1.539a9.624 9.624 0 0 0-2.63-1.921 10.165 10.165 0 0 0-4.372-1.058 10.208 10.208 0 0 0-4.407.921 9.698 9.698 0 0 0-2.697 1.837c-.465.451-.353 1.168.181 1.545l2.875 2.031c.533.377 1.285.255 1.838-.097a3.868 3.868 0 0 1 2.008-.59l2.262-2.601a.671.671 0 0 1 .715-.195.678.678 0 0 1 .385.335.67.67 0 0 1-.094.735l-1.755 2.017c.238.098.465.221.677.365.54.369 1.287.513 1.833.153l2.945-1.939z"/></symbol><symbol id="icon-modal-menu" viewBox="0 0 52 32"><path stroke-linecap="round" stroke-width="4" d="M2 2h48M2 16h48M2 30h48"/></symbol><symbol id="icon-play" viewBox="0 0 32 32"><path d="M30.662 5.003C26.174 4.358 21.214 4 16 4S5.826 4.358 1.338 5.003C.478 8.369 0 12.089 0 16s.477 7.63 1.338 10.997C5.827 27.642 10.786 28 16 28s10.174-.358 14.662-1.003C31.522 23.631 32 19.911 32 16s-.477-7.63-1.338-10.997zM12 22V10l10 6-10 6z"/></symbol></defs></svg>