<svg aria-hidden="true" style="position: absolute; width: 0; height: 0; overflow: hidden;" version="1.1" xmlns="http://www.w3.org/2000/svg" xmlns:xlink="http://www.w3.org/1999/xlink">
<defs>
<symbol id="icon-closed-modal" viewBox="0 0 32 32">
<path d="M18.193 16l12.896-12.896c0.255-0.298 0.388-0.68 0.373-1.072s-0.178-0.763-0.455-1.040-0.648-0.439-1.040-0.454c-0.392-0.015-0.774 0.118-1.072 0.373l-12.895 12.896-12.896-12.911c-0.293-0.293-0.69-0.457-1.104-0.457s-0.812 0.165-1.104 0.457c-0.293 0.293-0.457 0.69-0.457 1.104s0.165 0.812 0.457 1.104l12.911 12.896-12.911 12.896c-0.163 0.14-0.295 0.311-0.388 0.504s-0.146 0.403-0.154 0.617c-0.008 0.214 0.028 0.428 0.106 0.627s0.197 0.381 0.348 0.533c0.152 0.152 0.333 0.27 0.532 0.348s0.413 0.114 0.627 0.106c0.214-0.008 0.424-0.061 0.617-0.154s0.365-0.226 0.504-0.388l12.911-12.896 12.895 12.896c0.298 0.255 0.68 0.388 1.072 0.373s0.763-0.177 1.040-0.454 0.439-0.648 0.455-1.040c0.015-0.392-0.118-0.774-0.373-1.072l-12.896-12.896z"></path>
</symbol>
<symbol id="icon-video-apple" viewBox="0 0 26 32">
<path d="M14.393 2.785c2.103-2.771 5.026-2.785 5.026-2.785s0.435 2.605-1.654 5.115c-2.23 2.68-4.765 2.241-4.765 2.241s-0.476-2.108 1.394-4.572zM13.267 9.182c1.082 0 3.089-1.487 5.702-1.487 4.498 0 6.267 3.201 6.267 3.201s-3.461 1.769-3.461 6.063c0 4.843 4.311 6.512 4.311 6.512s-3.014 8.482-7.084 8.482c-1.87 0-3.323-1.26-5.293-1.26-2.008 0-4 1.307-5.297 1.307-3.717 0-8.413-8.046-8.413-14.514 0-6.364 3.975-9.702 7.703-9.702 2.424 0 4.304 1.398 5.565 1.398z"></path>
</symbol>
<symbol id="icon-video-android" viewBox="0 0 28 32">
<path d="M5.261 24.204c0 0.836 0.708 1.518 1.578 1.518h1.804v4.3c0 1.089 0.908 1.979 2.023 1.979 1.119 0 2.023-0.886 2.023-1.979v-4.303h3.149v4.3c0 1.089 0.908 1.979 2.023 1.979 1.119 0 2.023-0.886 2.023-1.979v-4.3h1.804c0.871 0 1.578-0.682 1.578-1.518v-14.114h-18.005v14.117zM18.49 2.773l1.663-2.321c0.096-0.136 0.074-0.318-0.056-0.407-0.13-0.086-0.315-0.043-0.411 0.093l-1.726 2.414c-1.137-0.432-2.404-0.671-3.734-0.671s-2.597 0.239-3.734 0.671l-1.726-2.411c-0.096-0.136-0.282-0.182-0.411-0.093-0.13 0.086-0.152 0.264-0.056 0.407l1.663 2.321c-2.645 1.186-4.497 3.432-4.735 6.057h18.005c-0.245-2.628-2.101-4.875-4.742-6.060zM10.425 6.433c-0.197 0-0.39-0.056-0.554-0.162s-0.292-0.256-0.367-0.431c-0.075-0.176-0.095-0.369-0.057-0.555s0.133-0.358 0.273-0.492 0.317-0.226 0.51-0.263c0.193-0.037 0.394-0.018 0.576 0.055s0.338 0.196 0.447 0.354 0.168 0.344 0.168 0.534c-0.001 0.255-0.106 0.499-0.293 0.679s-0.44 0.281-0.704 0.282zM18.145 6.433c-0.197 0-0.39-0.056-0.554-0.162s-0.292-0.256-0.367-0.431c-0.075-0.176-0.095-0.369-0.057-0.555s0.133-0.358 0.273-0.492 0.317-0.226 0.51-0.263c0.193-0.037 0.394-0.018 0.576 0.055s0.338 0.196 0.447 0.354 0.168 0.344 0.168 0.534c-0.001 0.255-0.106 0.499-0.293 0.679s-0.44 0.281-0.704 0.282zM26.422 10.030c-1.119 0-2.023 0.886-2.023 1.979v7.728c0 1.089 0.908 1.979 2.023 1.979 1.119 0 2.023-0.886 2.023-1.979v-7.732c0.004-1.093-0.9-1.975-2.023-1.975zM2.023 10.030c-1.119 0-2.023 0.886-2.023 1.979v7.728c0 1.089 0.908 1.979 2.023 1.979 1.119 0 2.023-0.886 2.023-1.979v-7.732c0-1.093-0.908-1.975-2.023-1.975z"></path>
</symbol>
<symbol id="icon-hero-arrow" viewBox="0 0 18 32">
<path d="M0.914 26.286l10.286-10.286-10.286-10.286 2.057-4.114 14.4 14.4-14.4 14.4-2.057-4.114z"></path>
</symbol>
<symbol id="icon-footer-in" viewBox="0 0 32 32">
<path d="M8.268 28h-5.805v-18.694h5.805v18.694zM5.362 6.756c-1.856 0-3.362-1.538-3.362-3.394 0-0.892 0.354-1.747 0.985-2.377s1.486-0.985 2.377-0.985c0.892 0 1.747 0.354 2.377 0.985s0.985 1.486 0.985 2.377c0 1.856-1.506 3.394-3.362 3.394zM29.994 28h-5.792v-9.1c0-2.169-0.044-4.95-3.018-4.95-3.018 0-3.481 2.356-3.481 4.794v9.256h-5.799v-18.694h5.567v2.55h0.081c0.775-1.469 2.668-3.019 5.492-3.019 5.875 0 6.955 3.869 6.955 8.894v10.269h-0.005z"></path>
</symbol>
<symbol id="icon-footer-twitter" viewBox="0 0 32 32">
<path d="M30 7.568c-0.383 0.574-0.818 1.112-1.3 1.606-0.484 0.498-1.010 0.953-1.572 1.36 0.018 0.251 0.027 0.502 0.028 0.754 0 1.148-0.122 2.282-0.368 3.404-0.245 1.118-0.603 2.208-1.068 3.254-0.644 1.473-1.495 2.847-2.528 4.080-0.99 1.179-2.149 2.204-3.44 3.042-1.296 0.836-2.708 1.476-4.19 1.9-1.547 0.443-3.149 0.664-4.758 0.658-1.552 0.002-3.096-0.217-4.586-0.65-1.493-0.435-2.915-1.087-4.218-1.936 1.504 0.182 3.030 0.065 4.489-0.343s2.824-1.1 4.015-2.037c-0.891-0.012-1.767-0.234-2.557-0.648s-1.471-1.007-1.989-1.732c-0.353-0.488-0.628-1.027-0.814-1.6 0.182 0.028 0.362 0.052 0.54 0.070 0.686 0.067 1.379 0.007 2.044-0.178-0.655-0.129-1.283-0.374-1.852-0.724-0.552-0.339-1.044-0.767-1.456-1.266-0.847-1.025-1.307-2.315-1.3-3.644v-0.066c0.804 0.454 1.674 0.696 2.612 0.724-0.782-0.533-1.424-1.246-1.872-2.080-0.219-0.411-0.389-0.847-0.506-1.298-0.238-0.955-0.233-1.954 0.014-2.906 0.126-0.486 0.322-0.948 0.588-1.386 0.728 0.902 1.54 1.712 2.432 2.426 1.773 1.422 3.821 2.46 6.016 3.050 1.108 0.297 2.244 0.473 3.39 0.526-0.055-0.213-0.094-0.431-0.116-0.65s-0.034-0.441-0.034-0.662c0-0.794 0.15-1.54 0.452-2.236 0.586-1.375 1.681-2.47 3.056-3.056 0.706-0.302 1.466-0.455 2.234-0.45 0.787-0.004 1.567 0.156 2.29 0.469s1.372 0.772 1.908 1.349c1.283-0.253 2.513-0.726 3.636-1.396-0.416 1.333-1.313 2.463-2.516 3.172 1.137-0.132 2.249-0.435 3.296-0.898v-0.002z"></path>
</symbol>
<symbol id="icon-footer-facebook" viewBox="0 0 32 32">
<path d="M24 3.416c0-0.196-0.077-0.385-0.213-0.524s-0.321-0.217-0.514-0.217h-3.636c-1.831-0.093-3.624 0.556-4.987 1.805s-2.185 2.996-2.286 4.86v3.999h-3.636c-0.193 0-0.378 0.078-0.514 0.217s-0.213 0.327-0.213 0.524v3.851c0 0.196 0.077 0.385 0.213 0.524s0.321 0.217 0.514 0.217h3.636v9.923c0 0.196 0.077 0.385 0.213 0.524s0.321 0.217 0.514 0.217h4.364c0.193 0 0.378-0.078 0.514-0.217s0.213-0.327 0.213-0.524v-9.923h3.811c0.162 0.002 0.32-0.050 0.449-0.149s0.222-0.24 0.264-0.399l1.047-3.851c0.029-0.109 0.033-0.224 0.011-0.335s-0.068-0.216-0.135-0.306c-0.067-0.090-0.154-0.163-0.254-0.214s-0.209-0.077-0.32-0.078h-4.873v-3.999c0.036-0.367 0.205-0.706 0.474-0.953s0.619-0.382 0.98-0.38h3.636c0.193 0 0.378-0.078 0.514-0.217s0.213-0.327 0.213-0.524v-3.851z"></path>
</symbol>
<symbol id="icon-modal-download-app-name" viewBox="0 0 32 32">
<path d="M26.706 9.022c0.187 0.188 0.294 0.441 0.294 0.706v19.272c0 0.553-0.447 1-1 1h-20c-0.553 0-1-0.447-1-1v-26c0-0.553 0.447-1 1-1h13.272c0.266 0 0.522 0.106 0.709 0.294l6.725 6.728zM24.694 10.188l-5.881-5.881v5.881h5.881zM10 15.063c-0.066 0-0.13 0.026-0.177 0.073s-0.073 0.11-0.073 0.177v1.5c0 0.066 0.026 0.13 0.073 0.177s0.11 0.073 0.177 0.073h12c0.066 0 0.13-0.026 0.177-0.073s0.073-0.11 0.073-0.177v-1.5c0-0.066-0.026-0.13-0.073-0.177s-0.11-0.073-0.177-0.073h-12zM10 19.312c-0.066 0-0.13 0.026-0.177 0.073s-0.073 0.11-0.073 0.177v1.5c0 0.066 0.026 0.13 0.073 0.177s0.11 0.073 0.177 0.073h5.75c0.066 0 0.13-0.026 0.177-0.073s0.073-0.11 0.073-0.177v-1.5c0-0.066-0.026-0.13-0.073-0.177s-0.11-0.073-0.177-0.073h-5.75z"></path>
</symbol>
<symbol id="icon-modal-download-author" viewBox="0 0 32 32">
<path d="M26.749 24.93c1.436-1.728 2.435-3.776 2.912-5.972s0.418-4.474-0.171-6.642c-0.59-2.168-1.693-4.162-3.216-5.814s-3.422-2.912-5.535-3.675c-2.113-0.763-4.379-1.005-6.606-0.707s-4.349 1.129-6.187 2.421-3.338 3.008-4.373 5.002c-1.035 1.994-1.574 4.209-1.572 6.455 0.001 3.266 1.152 6.428 3.251 8.93l-0.020 0.017c0.070 0.084 0.15 0.156 0.222 0.239 0.090 0.103 0.187 0.2 0.28 0.3 0.28 0.304 0.568 0.596 0.87 0.87 0.092 0.084 0.187 0.162 0.28 0.242 0.32 0.276 0.649 0.538 0.99 0.782 0.044 0.030 0.084 0.069 0.128 0.1v-0.012c2.342 1.648 5.136 2.533 8 2.533s5.658-0.885 8-2.533v0.012c0.044-0.031 0.083-0.070 0.128-0.1 0.34-0.245 0.67-0.506 0.99-0.782 0.093-0.080 0.188-0.159 0.28-0.242 0.302-0.275 0.59-0.566 0.87-0.87 0.093-0.1 0.189-0.197 0.28-0.3 0.071-0.083 0.152-0.155 0.222-0.24l-0.022-0.016zM16 8c0.89 0 1.76 0.264 2.5 0.758s1.317 1.197 1.657 2.020 0.43 1.727 0.256 2.6c-0.174 0.873-0.602 1.675-1.232 2.304s-1.431 1.058-2.304 1.232c-0.873 0.174-1.778 0.084-2.6-0.256s-1.525-0.917-2.020-1.657c-0.495-0.74-0.758-1.61-0.758-2.5 0-1.193 0.474-2.338 1.318-3.182s1.988-1.318 3.182-1.318v0zM8.007 24.93c0.017-1.313 0.551-2.567 1.485-3.489s2.194-1.44 3.508-1.441h6c1.313 0.001 2.573 0.518 3.508 1.441s1.468 2.176 1.485 3.489c-2.193 1.976-5.041 3.070-7.993 3.070s-5.8-1.094-7.993-3.070v0z"></path>
</symbol>
<symbol id="icon-modal-download-data" viewBox="0 0 32 32">
<path d="M28 26.667v-18.667c0-1.471-1.196-2.667-2.667-2.667h-2.667v-2.667h-2.667v2.667h-8v-2.667h-2.667v2.667h-2.667c-1.471 0-2.667 1.196-2.667 2.667v18.667c0 1.471 1.196 2.667 2.667 2.667h18.667c1.471 0 2.667-1.196 2.667-2.667zM12 24h-2.667v-2.667h2.667v2.667zM12 18.667h-2.667v-2.667h2.667v2.667zM17.333 24h-2.667v-2.667h2.667v2.667zM17.333 18.667h-2.667v-2.667h2.667v2.667zM22.667 24h-2.667v-2.667h2.667v2.667zM22.667 18.667h-2.667v-2.667h2.667v2.667zM25.333 12h-18.667v-2.667h18.667v2.667z"></path>
</symbol>
<symbol id="icon-modal-download-download" viewBox="0 0 24 32">
<path d="M14.088 8.425v-8.425h-12.579c-0.836 0-1.509 0.663-1.509 1.487v28.743c0 0.824 0.673 1.487 1.509 1.487h21.132c0.836 0 1.509-0.663 1.509-1.487v-20.318h-8.553c-0.83 0-1.509-0.669-1.509-1.487zM18.896 21.518l-6.064 5.928c-0.418 0.409-1.094 0.409-1.512 0l-6.064-5.928c-0.638-0.624-0.191-1.695 0.708-1.695h4.099v-4.956c0-0.548 0.45-0.991 1.006-0.991h2.013c0.556 0 1.006 0.444 1.006 0.991v4.956h4.099c0.898 0 1.346 1.071 0.709 1.695zM23.711 6.504l-6.157-6.071c-0.283-0.279-0.667-0.434-1.069-0.434h-0.384v7.929h8.050v-0.378c0-0.39-0.157-0.768-0.44-1.047z"></path>
</symbol>
<symbol id="icon-modal-download-downloads-svg" viewBox="0 0 32 32">
<path d="M13.5 0h5c0.831 0 1.5 0.669 1.5 1.5v10.5h5.481c1.112 0 1.669 1.344 0.881 2.131l-9.506 9.513c-0.469 0.469-1.238 0.469-1.706 0l-9.519-9.513c-0.787-0.787-0.231-2.131 0.881-2.131h5.488v-10.5c0-0.831 0.669-1.5 1.5-1.5zM32 23.5v7c0 0.831-0.669 1.5-1.5 1.5h-29c-0.831 0-1.5-0.669-1.5-1.5v-7c0-0.831 0.669-1.5 1.5-1.5h9.169l3.062 3.063c1.256 1.256 3.281 1.256 4.538 0l3.062-3.063h9.169c0.831 0 1.5 0.669 1.5 1.5zM24.25 29c0-0.688-0.563-1.25-1.25-1.25s-1.25 0.563-1.25 1.25c0 0.688 0.563 1.25 1.25 1.25s1.25-0.563 1.25-1.25zM28.25 29c0-0.688-0.563-1.25-1.25-1.25s-1.25 0.563-1.25 1.25c0 0.688 0.563 1.25 1.25 1.25s1.25-0.563 1.25-1.25z"></path>
</symbol>
<symbol id="icon-modal-download-language" viewBox="0 0 32 32">
<path d="M16 29.333c-1.822 0-3.544-0.35-5.167-1.051s-3.039-1.655-4.249-2.867c-1.212-1.211-2.167-2.627-2.867-4.249s-1.051-3.344-1.051-5.167c0-1.844 0.35-3.572 1.051-5.183s1.655-3.023 2.867-4.233c1.211-1.212 2.627-2.168 4.249-2.868s3.344-1.049 5.167-1.049c1.844 0 3.572 0.35 5.183 1.049s3.023 1.656 4.233 2.868c1.212 1.211 2.167 2.622 2.867 4.233s1.051 3.338 1.051 5.183c0 1.822-0.35 3.544-1.051 5.167s-1.655 3.039-2.867 4.249c-1.211 1.212-2.622 2.167-4.233 2.867s-3.338 1.051-5.183 1.051zM16 26.6c0.578-0.8 1.078-1.633 1.5-2.5s0.767-1.789 1.033-2.767h-5.067c0.267 0.978 0.611 1.9 1.033 2.767s0.922 1.7 1.5 2.5v0zM12.534 26.067c-0.4-0.733-0.75-1.495-1.049-2.284s-0.551-1.605-0.751-2.449h-3.933c0.644 1.111 1.45 2.078 2.416 2.9s2.073 1.433 3.317 1.833zM19.467 26.067c1.244-0.4 2.35-1.011 3.316-1.833s1.773-1.789 2.417-2.9h-3.933c-0.2 0.844-0.45 1.661-0.749 2.449s-0.651 1.551-1.051 2.284v0zM5.667 18.667h4.533c-0.067-0.444-0.117-0.884-0.151-1.317s-0.049-0.883-0.049-1.349c0-0.467 0.016-0.916 0.049-1.349s0.084-0.873 0.151-1.317h-4.533c-0.111 0.444-0.195 0.884-0.251 1.317s-0.083 0.883-0.083 1.349c0 0.467 0.028 0.916 0.083 1.349s0.14 0.873 0.251 1.317zM12.867 18.667h6.267c0.067-0.444 0.117-0.884 0.151-1.317 0.033-0.433 0.049-0.883 0.049-1.349s-0.016-0.916-0.049-1.349c-0.034-0.434-0.084-0.873-0.151-1.317h-6.267c-0.067 0.444-0.116 0.884-0.149 1.317s-0.051 0.883-0.051 1.349c0 0.467 0.017 0.916 0.051 1.349s0.083 0.873 0.149 1.317zM21.8 18.667h4.533c0.111-0.444 0.195-0.884 0.251-1.317s0.083-0.883 0.083-1.349c0-0.467-0.028-0.916-0.083-1.349s-0.14-0.873-0.251-1.317h-4.533c0.067 0.444 0.116 0.884 0.149 1.317 0.034 0.433 0.051 0.883 0.051 1.349s-0.017 0.916-0.051 1.349c-0.033 0.434-0.083 0.873-0.149 1.317zM21.267 10.667h3.933c-0.644-1.111-1.45-2.078-2.417-2.9s-2.072-1.433-3.316-1.833c0.4 0.733 0.75 1.494 1.051 2.283s0.549 1.606 0.749 2.451v0zM13.467 10.667h5.067c-0.267-0.978-0.611-1.9-1.033-2.767s-0.922-1.7-1.5-2.5c-0.578 0.8-1.078 1.633-1.5 2.5s-0.767 1.789-1.033 2.767zM6.8 10.667h3.933c0.2-0.844 0.45-1.661 0.751-2.451s0.649-1.549 1.049-2.283c-1.244 0.4-2.35 1.011-3.317 1.833s-1.772 1.789-2.416 2.9z"></path>
</symbol>
<symbol id="icon-modal-download-license" viewBox="0 0 25 32">
<path d="M7.572 18.876v-1.876h2v1.876c0 0.164 0.020 0.327 0.060 0.486l0.8 3.196-1.86 1.24-1.86-1.24 0.8-3.196c0.040-0.159 0.060-0.322 0.060-0.486v0z"></path>
<path d="M15.158 0h-10.586c-1.061 0-2.078 0.421-2.828 1.172s-1.172 1.768-1.172 2.828v24c0 1.061 0.421 2.078 1.172 2.828s1.768 1.172 2.828 1.172h16c1.061 0 2.078-0.421 2.828-1.172s1.172-1.768 1.172-2.828v-18.586c-0-0.53-0.211-1.039-0.586-1.414l-7.414-7.414c-0.375-0.375-0.884-0.586-1.414-0.586v0zM15.571 7v-4l6 6h-4c-0.53 0-1.039-0.211-1.414-0.586s-0.586-0.884-0.586-1.414zM7.571 6v-2h-2v-2h3v2h2v2h-2v2h2v2h-2v2h2v2h-3v-2h-2v-2h2v-2h-2v-2h2zM7.571 15h2c0.53 0 1.039 0.211 1.414 0.586s0.586 0.884 0.586 1.414v1.876l0.8 3.198c0.1 0.4 0.073 0.821-0.076 1.206s-0.413 0.714-0.756 0.942l-1.86 1.24c-0.328 0.219-0.714 0.336-1.109 0.336s-0.781-0.117-1.109-0.336l-1.86-1.24c-0.343-0.229-0.607-0.558-0.755-0.943s-0.175-0.805-0.075-1.206l0.8-3.198v-1.876c0-0.53 0.211-1.039 0.586-1.414s0.884-0.586 1.414-0.586v0z"></path>
</symbol>
<symbol id="icon-modal-download-oc" viewBox="0 0 32 32">
<path d="M28.005 2.672h-24c-0.707 0.002-1.384 0.284-1.883 0.783s-0.781 1.177-0.783 1.883v16c0.002 0.707 0.284 1.384 0.783 1.883s1.177 0.781 1.883 0.783h9.333v2.667h-2.667v2.667h10.667v-2.667h-2.667v-2.667h9.333c0.707-0.002 1.384-0.284 1.883-0.783s0.781-1.177 0.783-1.883v-16c-0.002-0.707-0.284-1.384-0.783-1.883s-1.177-0.781-1.883-0.783v0zM14.341 18.227h-0.001l-6.333-6.333 1.887-1.884 4.448 4.448 7.78-7.781 1.887 1.887-9.667 9.664z"></path>
</symbol>
<symbol id="icon-modal-download-play" viewBox="0 0 32 32">
<path d="M7.381 29.181c0.216 0.112 0.458 0.164 0.701 0.149s0.477-0.096 0.677-0.234l17.333-12c0.177-0.123 0.322-0.287 0.422-0.477s0.152-0.403 0.152-0.619-0.052-0.428-0.152-0.619c-0.1-0.191-0.245-0.355-0.422-0.477l-17.333-12c-0.2-0.138-0.434-0.219-0.677-0.234s-0.485 0.037-0.7 0.15c-0.215 0.113-0.396 0.283-0.522 0.491s-0.193 0.447-0.193 0.69v24c-0 0.243 0.067 0.482 0.193 0.69s0.307 0.378 0.522 0.491z"></path>
</symbol>
<symbol id="icon-modal-download-size" viewBox="0 0 32 32">
<path d="M26.806 25.481c-0.038 0.681-0.335 1.321-0.83 1.789s-1.151 0.729-1.833 0.729h-16.288c-0.682 0-1.337-0.261-1.833-0.729s-0.792-1.109-0.83-1.789l-1.037-18.667c-0.020-0.362 0.034-0.724 0.158-1.065s0.317-0.652 0.567-0.915c0.249-0.263 0.549-0.473 0.882-0.617s0.692-0.217 1.054-0.218h18.363c0.363 0 0.721 0.074 1.055 0.217s0.633 0.353 0.883 0.617 0.442 0.575 0.567 0.916c0.125 0.341 0.179 0.703 0.159 1.065l-1.037 18.667zM22.829 11.853c0.547-0.36 0.684-1.074 0.235-1.539-0.761-0.785-1.651-1.435-2.63-1.921-1.36-0.675-2.854-1.036-4.372-1.058-1.519-0.025-3.025 0.29-4.407 0.921-0.996 0.455-1.908 1.077-2.697 1.837-0.465 0.451-0.353 1.168 0.181 1.545l2.875 2.031c0.533 0.377 1.285 0.255 1.838-0.097 0.143-0.091 0.291-0.171 0.445-0.241 0.491-0.224 1.023-0.343 1.563-0.349l2.262-2.601c0.116-0.133 0.28-0.215 0.457-0.228 0.087-0.006 0.175 0.005 0.258 0.033s0.16 0.072 0.226 0.129c0.066 0.057 0.12 0.127 0.159 0.206s0.062 0.164 0.068 0.251c0.006 0.087-0.005 0.175-0.033 0.258s-0.072 0.16-0.129 0.226l-1.755 2.017c0.238 0.098 0.465 0.221 0.677 0.365 0.54 0.369 1.287 0.513 1.833 0.153l2.945-1.939z"></path>
</symbol>
<symbol id="icon-modal-menu" viewBox="0 0 52 32">
<path stroke-linejoin="miter" stroke-linecap="round" stroke-miterlimit="4" stroke-width="4" d="M2 2h48"></path>
<path stroke-linejoin="miter" stroke-linecap="round" stroke-miterlimit="4" stroke-width="4" d="M2 16h48"></path>
<path stroke-linejoin="miter" stroke-linecap="round" stroke-miterlimit="4" stroke-width="4" d="M2 30h48"></path>
</symbol>
<symbol id="icon-play" viewBox="0 0 32 32">
<path d="M30.662 5.003c-4.488-0.645-9.448-1.003-14.662-1.003s-10.174 0.358-14.662 1.003c-0.86 3.366-1.338 7.086-1.338 10.997s0.477 7.63 1.338 10.997c4.489 0.645 9.448 1.003 14.662 1.003s10.174-0.358 14.662-1.003c0.86-3.366 1.338-7.086 1.338-10.997s-0.477-7.63-1.338-10.997zM12 22v-12l10 6-10 6z"></path>
</symbol>
</defs>
</svg>
